HIERARCHY
ROOT root
{
	OFFSET	0	13.1	24.9
	CHANNELS 6  Xposition Yposition Zposition Xrotation Yrotation Zrotation
	JOINT spine_1
	{
		OFFSET	0	9.99999	0
		CHANNELS 3  Xrotation Yrotation Zrotation
		JOINT spine_2
		{
			OFFSET	0	112	-10
			CHANNELS 3  Xrotation Yrotation Zrotation
			JOINT spine_3
			{
				OFFSET	0	206.5	19.3
				CHANNELS 3  Xrotation Yrotation Zrotation
				JOINT spine_4
				{
					OFFSET	0	110.4	14.6
					CHANNELS 3  Xrotation Yrotation Zrotation
					JOINT neck_1
					{
						OFFSET	0	71.8	-50.3
						CHANNELS 3  Xrotation Yrotation Zrotation
						JOINT neck_2
						{
							OFFSET	0	86.2	-25.8
							CHANNELS 3  Xrotation Yrotation Zrotation
							JOINT head_ee
							{
								OFFSET	0	179.8	-8.7
								CHANNELS 3  Xrotation Yrotation Zrotation
								End Site
								{
									OFFSET	1	0	0
								}
							}
						}
					}
					JOINT left_clavicle
					{
						OFFSET	-43.2	22.4	-70.8
						CHANNELS 3  Xrotation Yrotation Zrotation
						JOINT left_shoulder
						{
							OFFSET	-93.9	-5.79999	48.7
							CHANNELS 3  Xrotation Yrotation Zrotation
							JOINT left_elbow
							{
								OFFSET	-291.4	-30.8	15.2
								CHANNELS 3  Xrotation Yrotation Zrotation
								JOINT left_lowarm_twist
								{
									OFFSET	-110.7	-3.89999	13.6
									CHANNELS 3  Xrotation Yrotation Zrotation
									JOINT left_hand
									{
										OFFSET	-110.7	-3.89999	13.6
										CHANNELS 3  Xrotation Yrotation Zrotation
										JOINT left_ee
										{
											OFFSET	-80.8	-5.10001	12.1
											CHANNELS 3  Xrotation Yrotation Zrotation
											End Site
											{
												OFFSET	1	0	0
											}
										}
									}
								}
							}
						}
					}
					JOINT right_clavicle
					{
						OFFSET	43.2	22.4	-70.8
						CHANNELS 3  Xrotation Yrotation Zrotation
						JOINT right_shoulder
						{
							OFFSET	93.9	-5.79999	48.7
							CHANNELS 3  Xrotation Yrotation Zrotation
							JOINT right_elbow
							{
								OFFSET	291.4	-30.8	15.2
								CHANNELS 3  Xrotation Yrotation Zrotation
								JOINT right_lowarm_twist
								{
									OFFSET	110.7	-3.89999	13.6
									CHANNELS 3  Xrotation Yrotation Zrotation
									JOINT right_hand
									{
										OFFSET	110.7	-3.89999	13.6
										CHANNELS 3  Xrotation Yrotation Zrotation
										JOINT right_ee
										{
											OFFSET	80.8	-5.10001	12.1
											CHANNELS 3  Xrotation Yrotation Zrotation
											End Site
											{
												OFFSET	1	0	0
											}
										}
									}
								}
							}
						}
					}
				}
			}
		}
	}
	JOINT left_hip
	{
		OFFSET	-82.8	-127.5	0.300001
		CHANNELS 3  Xrotation Yrotation Zrotation
		JOINT left_knee
		{
			OFFSET	-28.2	-396.7	2.2
			CHANNELS 3  Xrotation Yrotation Zrotation
			JOINT left_ankle
			{
				OFFSET	-11.7	-411.3	35.4
				CHANNELS 3  Xrotation Yrotation Zrotation
				JOINT left_toes
				{
					OFFSET	0	-60	-88.6
					CHANNELS 3  Xrotation Yrotation Zrotation
					JOINT left_foot_ee
					{
						OFFSET	-22.5	-16.5	-42.2
						CHANNELS 3  Xrotation Yrotation Zrotation
						End Site
						{
							OFFSET	1	0	0
						}
					}
				}
			}
		}
	}
	JOINT right_hip
	{
		OFFSET	82.8	-127.5	0.300001
		CHANNELS 3  Xrotation Yrotation Zrotation
		JOINT right_knee
		{
			OFFSET	28.2	-396.7	2.2
			CHANNELS 3  Xrotation Yrotation Zrotation
			JOINT right_ankle
			{
				OFFSET	11.7	-411.3	35.4
				CHANNELS 3  Xrotation Yrotation Zrotation
				JOINT right_toes
				{
					OFFSET	0	-60	-88.6
					CHANNELS 3  Xrotation Yrotation Zrotation
					JOINT right_foot_ee
					{
						OFFSET	22.5	-16.5	-42.2
						CHANNELS 3  Xrotation Yrotation Zrotation
						End Site
						{
							OFFSET	1	0	0
						}
					}
				}
			}
		}
	}
}
MOTION
Frames: 9
Frame Time: 0.02
3129.8 769.91 -1422.15 1.62243 71.3432 -0.646978 0.0366008 0.622686 -0.526257 0.0365162 0.654911 -0.485567 0.0307627 0.742168 -0.337441 0.0312485 0.679561 -0.450421 -5.96737 15.4621 6.8263 -5.80915 23.6231 9.74783 -0.0 0.0 -0.0 5.29946 -12.1221 9.68164 -13.1279 -17.9334 52.694 1.14674 -29.5983 0.302975 11.3915 0.259997 -1.42955 -0.895796 1.33036 -5.40778 -0.0 0.0 -0.0 2.04762 9.80025 -3.07508 -4.91493 18.6467 -69.6366 1.06344 27.7794 -0.262979 24.0483 -0.21166 3.04219 1.6799 -5.22237 -13.3345 0.0 0.0 0.0 9.52204 -38.7677 7.09541 -10.8904 0.292979 1.64313 4.52353 27.3897 -0.692626 16.8389 -0.0 -0.0 -0.0 0.0 -0.0 16.6559 15.6664 -1.48574 -41.5062 0.565358 -6.20782 12.5718 -18.1586 1.80028 -1.85819 0.0 0.0 0.0 0.0 0.0 
3122.44 772.937 -1418.28 2.73695 70.0316 -1.89925 0.0423717 0.564257 -0.50739 0.0423176 0.5954 -0.470457 0.0372589 0.680772 -0.335226 0.0376376 0.619286 -0.438537 -5.98243 15.5175 6.93722 -5.82108 23.6482 9.87107 -0.0 0.0 -0.0 5.15936 -12.4888 9.36154 -12.3121 -18.1089 51.6299 1.17191 -30.1353 0.315506 11.3531 0.259601 -1.42467 -0.908832 1.24462 -5.53265 -0.0 0.0 -0.0 1.8897 9.71387 -2.75677 -5.53703 18.4596 -69.393 1.01974 26.7999 -0.242941 24.0037 -0.212454 3.03655 1.66104 -5.38458 -13.2685 0.0 0.0 0.0 8.44441 -38.6523 7.84835 -10.9291 0.293459 1.64904 4.51537 27.3896 -0.691391 16.8385 -0.0 -0.0 -0.0 0.0 -0.0 18.3093 15.4572 -2.12926 -40.6004 0.505406 -6.08212 12.5721 -18.145 1.80024 -1.86474 0.0 0.0 0.0 0.0 0.0 
3118.43 769.82 -1414.67 2.32096 70.2283 -2.00101 0.0339116 0.553689 -0.204562 0.0337569 0.565584 -0.168914 0.0319721 0.588426 -0.046591 0.0324283 0.573683 -0.13894 -5.63435 16.2258 6.86356 -5.44895 24.9358 9.86543 -0.0 0.0 -0.0 4.93457 -10.8853 8.99389 -9.57885 -17.8048 49.1958 1.48904 -36.4111 0.489755 9.28844 0.233489 -1.16224 -0.936728 1.49691 -5.60794 -0.0 0.0 -0.0 2.76583 12.2055 -4.351 -5.95331 18.0788 -69.5613 0.624543 17.1911 -0.0944047 23.7925 -0.21616 3.00983 1.60967 -5.26371 -12.876 0.0 0.0 0.0 7.56186 -36.3352 8.08737 -8.26895 0.251111 1.24309 4.7738 28.7201 -0.736627 16.8803 -0.0 -0.0 -0.0 0.0 -0.0 19.5952 14.4196 -1.59615 -35.224 0.191206 -5.31821 8.00817 -16.8086 1.15953 -3.1138 0.0 0.0 0.0 0.0 0.0 
3104.24 776.34 -1410.79 2.71516 69.274 -2.05293 -0.0252636 0.450084 -0.230307 -0.0253537 0.463826 -0.201199 -0.0270722 0.495801 -0.09898 -0.0267728 0.473946 -0.176042 -5.77411 16.2204 6.93762 -5.59462 24.9067 9.96415 -0.0 0.0 -0.0 4.77197 -10.7372 8.66304 -8.90354 -17.8465 48.3311 1.54845 -37.4877 0.525473 9.21918 0.232449 -1.15345 -0.965116 1.32917 -5.87176 -0.0 0.0 -0.0 2.3986 12.2282 -3.57979 -6.97183 17.7945 -69.2143 0.595071 16.4246 -0.0858825 23.7922 -0.216166 3.00979 1.58612 -5.65285 -12.865 0.0 0.0 0.0 7.79943 -36.2393 8.48078 -8.31027 0.251913 1.24938 4.77159 28.7572 -0.736468 16.8772 -0.0 -0.0 -0.0 0.0 -0.0 20.2623 14.3199 -1.86378 -35.0982 0.184722 -5.30001 7.94073 -16.8177 1.15003 -3.21775 0.0 0.0 0.0 0.0 0.0 
3093.24 780.979 -1405.31 1.8694 68.6064 -0.733428 -0.0725538 0.373742 -0.305482 -0.0725877 0.392424 -0.281081 -0.0745882 0.442987 -0.191741 -0.0744078 0.407146 -0.259297 -5.84989 16.2195 6.98108 -5.67345 24.8923 10.0213 -0.0 0.0 -0.0 4.84108 -10.6058 8.81623 -7.85586 -17.9616 47.743 1.60682 -38.5158 0.561407 9.14691 0.231353 -1.14429 -0.993714 1.17255 -6.13236 -0.0 0.0 -0.0 2.30297 12.2256 -3.37978 -7.69733 17.617 -69.3843 0.560169 15.509 -0.0762813 23.7914 -0.21618 3.00969 1.56342 -6.00415 -12.8452 0.0 0.0 0.0 7.99247 -36.1329 8.80715 -8.33446 0.25238 1.25306 4.74309 28.7859 -0.73226 16.8748 -0.0 -0.0 -0.0 0.0 -0.0 20.7626 14.2414 -2.05278 -35.0084 0.180112 -5.28699 7.89431 -16.7998 1.14341 -3.29096 0.0 0.0 0.0 0.0 0.0 
3086.71 778.699 -1405.93 -0.758319 68.4422 2.15906 0.154285 0.292354 -0.327127 0.154291 0.312578 -0.307861 0.152565 0.369676 -0.236268 0.152637 0.327723 -0.291687 -6.50549 16.0064 6.83698 -6.37332 24.7664 9.96131 -0.0 0.0 -0.0 5.04178 -8.63824 9.35445 -4.51225 -17.3174 46.8402 1.9036 -43.3149 0.755957 6.95972 0.192713 -0.867588 -1.66742 2.41794 -10.0925 -0.0 0.0 -0.0 2.29476 12.1574 -3.36895 -8.50751 17.1491 -69.4255 0.459682 12.8285 -0.0516775 23.7441 -0.216996 3.0037 1.52706 -9.12986 -13.762 0.0 0.0 0.0 6.23134 -34.4649 7.41691 -7.00515 0.224397 1.051 4.77235 29.0534 -0.738024 17.3023 -0.0 -0.0 -0.0 0.0 -0.0 21.7079 13.1704 -1.0075 -35.1087 0.18526 -5.30153 7.9937 -16.7703 1.15736 -3.34776 0.0 0.0 0.0 0.0 0.0 
3069.34 774.427 -1403.9 5.4387 68.8652 -4.79302 -0.280439 0.197496 0.062677 -0.280457 0.193107 0.0751172 -0.280205 0.172447 0.11487 -0.280174 0.188424 0.0861937 -6.89778 16.1691 6.60539 -6.79728 25.3364 9.84274 -0.0 0.0 -0.0 5.26915 -6.5158 9.93542 -1.50087 -14.7596 45.758 2.38394 -49.7351 1.10507 3.56072 0.111777 -0.440999 -2.23622 3.7052 -13.3298 -0.0 0.0 -0.0 2.28051 12.2238 -3.3329 -9.7063 16.8087 -69.7585 0.439881 12.293 -0.0473712 23.5793 -0.2198 2.98284 1.35443 -15.7886 -14.97 0.0 0.0 0.0 1.40848 -32.4634 11.016 -5.73827 0.193369 0.859059 4.42238 29.1576 -0.684985 17.2235 -0.0 -0.0 -0.0 0.0 -0.0 26.5613 13.689 -3.96524 -31.417 0.0128142 -4.76146 0.190631 -17.0833 0.0282073 -4.86944 0.0 0.0 0.0 0.0 0.0 
3058.69 770.893 -1401.67 6.78769 67.6366 -7.06762 -0.549074 0.366414 0.287091 -0.549095 0.347403 0.309825 -0.547163 0.27093 0.37852 -0.547214 0.327309 0.330982 -6.46104 16.4976 6.18523 -6.34464 26.1502 9.40626 -0.0 0.0 -0.0 5.42146 -4.97843 10.3155 0.611592 -12.991 44.8704 2.82833 -54.4728 1.45605 1.21313 0.0411608 -0.149469 -2.62088 4.66998 -15.4742 -0.0 0.0 -0.0 2.3237 13.5838 -3.29567 -10.6367 16.5581 -69.827 0.414617 11.6067 -0.0421401 23.4188 -0.222475 2.96251 1.19598 -21.2409 -15.7545 0.0 0.0 0.0 -1.13595 -30.6205 11.5601 -4.83876 0.168764 0.723208 4.16609 29.5922 -0.647598 16.9898 -0.0 -0.0 -0.0 0.0 -0.0 28.1031 13.9831 -4.42744 -27.3027 -0.137891 -4.14816 -5.01093 -17.1728 -0.749528 -5.86474 0.0 0.0 0.0 0.0 0.0 
3048.27 779.347 -1401.94 6.21467 68.121 -6.03033 -0.680046 0.254321 0.262941 -0.680039 0.237074 0.278591 -0.67884 0.169399 0.324224 -0.678921 0.218478 0.293402 -6.4516 16.5099 6.17947 -6.33468 26.1751 9.40105 -0.0 0.0 -0.0 5.37622 -5.32356 10.2088 1.62367 -13.2621 44.1598 2.8853 -55.0109 1.50257 1.1467 0.0389892 -0.141263 -2.62336 4.64628 -15.5031 -0.0 0.0 -0.0 2.24358 13.5877 -3.12649 -11.2952 16.4081 -69.6948 0.400717 11.2277 -0.0393886 23.3504 -0.223599 2.95384 1.18462 -21.4024 -15.7357 0.0 0.0 0.0 -1.70571 -30.1961 12.0045 -4.88658 0.170126 0.730421 4.17522 29.6264 -0.649154 16.9929 -0.0 -0.0 -0.0 0.0 -0.0 29.6135 13.7275 -5.2148 -25.8307 -0.181049 -3.92638 -5.01018 -17.1531 -0.749375 -5.87224 0.0 0.0 0.0 0.0 0.0 
